Sefta.sfdir
StartChar: uE010
Encoding: 57360 57360 0
Width: 1000
VWidth: 0
Flags: HMW
LayerCount: 2
Fore
SplineSet
32 0 m 1
 500 783 l 1
 968 0 l 1
 830 50 l 1
 500 600 l 1
 170 50 l 1
 32 0 l 1
EndSplineSet
Comment: "Valbli A"
Colour: ff0000
EndChar
StartChar: uE012
Encoding: 57362 57362 1
Width: 1000
VWidth: 0
HStem: 300 200
VStem: 400 200
LayerCount: 2
Fore
SplineSet
500 500 m 5
 600 400 l 5
 500 300 l 5
 400 400 l 5
 500 500 l 5
EndSplineSet
Comment: "Valbli I"
Colour: ff0000
EndChar
StartChar: uE013
Encoding: 57363 57363 2
Width: 1000
VWidth: 0
HStem: 50 50<396.632 604.063> 700 50<396.632 604.063>
VStem: 150 100<281.647 518.353> 760 90<281.647 518.353>
LayerCount: 2
Fore
SplineSet
150 400 m 24
 150 207 307 50 500 50 c 24
 693 50 850 207 850 400 c 24
 850 593 693 750 500 750 c 24
 307 750 150 593 150 400 c 24
760 400 m 1
 760 235 665 100 500 100 c 1
 335 100 250 235 250 400 c 1
 250 565 335 700 500 700 c 1
 665 700 760 565 760 400 c 1
EndSplineSet
Comment: "Valbli O"
Colour: ff0000
EndChar
StartChar: uniE013
Encoding: 57363 57363 2
Width: 1000
VWidth: 0
Flags: HMW
HStem: 208.743 93.4434<-94.0061 1166.12> 1423.51 93.4434<-94.0061 1166.12>
VStem: -1592.27 607.491<641.66 1084.03> 2113.42 546.742<641.66 1084.03>
LayerCount: 2
Fore
SplineSet
796.5 400 m 0
 796.5 589.75 689.75 742.5 500 742.5 c 0
 310.25 742.5 215 589.75 215 400 c 0
 215 210.25 310.25 57.7001953125 500 57.7001953125 c 4
 689.75 57.7001953125 796.5 210.25 796.5 400 c 0
100 400 m 0
 100 621.950195312 278.049804688 799.799804688 500 799.799804688 c 0
 721.950195312 799.799804688 900 621.950195312 900 400 c 0
 900 178.05078125 721.950195312 0 500 0 c 4
 278.049804688 0 100 178.05078125 100 400 c 0
EndSplineSet
Comment: "Valbli O"
Colour: ff0000
EndChar
StartChar: uniE014
Encoding: 57364 57364 5
Width: 1000
VWidth: 0
Flags: HM
LayerCount: 2
Fore
SplineSet
200 100 m 0
 750 100 l 0
 850 0 l 1
 100 0 l 1
 100 750 l 1
 200 650 l 0
 200 100 l 0
898 800 m 1
 898 0 l 1
 798 100 l 0
 798 700 l 0
 200 700 l 0
 100 800 l 1
 898 800 l 1
EndSplineSet
Validated: 1
Comment: "Valbli U"
Colour: ff0000
EndChar
StartChar: uniE016
Encoding: 57366 57366 6
Width: 1000
VWidth: 0
HStem: 350 100<136 864>
LayerCount: 2
Fore
SplineSet
900 350 m 5
 136 350 l 5
 100 450 l 5
 864 450 l 5
 900 350 l 5
EndSplineSet
Validated: 1
Comment: "Valbli ."
Colour: ff00
EndChar
StartChar: uniE018
Encoding: 57368 57368 8
Width: 1000
VWidth: 0
Flags: W
HStem: 0 100<200 864>
VStem: 100 100<100 764>
LayerCount: 2
Fore
SplineSet
478 582 m 1
 478 582 405.994704455 649.854555377 404 650 c 0
 401.954623309 650.149139408 269.351749654 425.898665218 412 306 c 0
 527.48786979 208.930169819 752 362 752 362 c 1
 752 362 749.03125 469.713867188 748 468 c 0
 747.63671875 467.396484375 567.804192159 319.10584579 482 390 c 0
 408.727539062 450.540039062 444.170270605 511.23692903 478 582 c 1
864 100 m 1
 900 0 l 1
 136 0 l 1
 100 100 l 1
 100 764 l 1
 200 800 l 1
 200 100 l 1
 864 100 l 1
EndSplineSet
Comment: "Valbli M"
Colour: ffff00
EndChar
StartChar: uniE019
Encoding: 57369 57369 22
Width: 1000
VWidth: 0
Flags: W
HStem: 0 100<200 500 600 864>
VStem: 100 100<100 764> 500 100<100 664>
LayerCount: 2
Fore
SplineSet
500 664 m 5
 600 700 l 1
 600 100 l 1
 864 100 l 1
 900 0 l 1
 136 0 l 1
 100 100 l 1
 100 764 l 1
 200 800 l 1
 200 100 l 1
 500 100 l 5
 500 664 l 5
EndSplineSet
Comment: "Valbli N"
Colour: ffff00
EndChar
StartChar: uniE01A
Encoding: 57370 57370 24
Width: 1000
VWidth: 0
Flags: W
HStem: 0 21G<198.522 256.769>
LayerCount: 2
Fore
SplineSet
141 69 m 1
 819 459 l 1
 900 390 l 1
 222 0 l 1
 141 69 l 1
100 374 m 1
 838 800 l 1
 919 731 l 1
 181 305 l 1
 100 374 l 1
EndSplineSet
Validated: 1
Comment: "Valbli L"
Colour: ffff00
EndChar
StartChar: uniE01B
Encoding: 57371 57371 23
Width: 1000
VWidth: 0
Flags: W
HStem: 0 21G<100 155.556>
VStem: 100 100<177 764>
LayerCount: 2
Fore
SplineSet
644 621 m 1
 740 576 l 1
 200 36 l 1
 100 0 l 1
 100 764 l 1
 200 800 l 1
 200 177 l 1
 644 621 l 1
EndSplineSet
Validated: 1
Comment: "Valbli R"
Colour: ffff00
EndChar
StartChar: uniE020
Encoding: 57376 57376 9
Width: 1000
VWidth: 0
Flags: W
HStem: 0 21G<95 228.5> 600 100<136 499 620 864>
LayerCount: 2
Fore
SplineSet
215 0 m 1
 95 0 l 1
 499 600 l 1
 136 600 l 1
 100 700 l 1
 864 700 l 1
 900 600 l 1
 620 600 l 1
 215 0 l 1
EndSplineSet
Comment: "Valbli K"
Colour: ffff00
EndChar
StartChar: uniE021
Encoding: 57377 57377 11
Width: 1000
VWidth: 0
Flags: W
HStem: 20 57<642.489 759.814>
VStem: 400 100<357.865 445>
LayerCount: 2
Fore
SplineSet
136 600 m 1
 800 600 l 0
 861 561.051215824 900.984689314 72.4621083853 700 77 c 0
 529.620419325 80.846880442 500 500 500 500 c 1
 400 445 l 1
 400 427 424.002994453 22.3775888679 700 20 c 0
 974.911854243 17.6317592178 993.882140707 381.080105616 900 600 c 0
 864 700 l 1
 100 700 l 1
 136 600 l 1
EndSplineSet
Comment: "Valbli P"
Colour: ffff00
EndChar
StartChar: uniE022
Encoding: 57378 57378 10
Width: 1000
VWidth: 0
Flags: W
HStem: 700 100<136 450 550 864>
VStem: 450 100<38 700>
LayerCount: 2
Fore
SplineSet
550 700 m 5
 550 38 l 1
 450 2 l 1
 450 700 l 5
 136 700 l 5
 100 800 l 5
 864 800 l 5
 900 700 l 5
 550 700 l 5
EndSplineSet
Validated: 1
Comment: "Valbli T"
Colour: ffff00
EndChar
StartChar: uniE023
Encoding: 57379 57379 12
Width: 1000
VWidth: 0
Flags: W
LayerCount: 2
Fore
SplineSet
900 600 m 1
 864 700 l 1
 100 700 l 1
 136 600 l 1
 800 602 l 1
 800 400 l 1
 100 400 l 1
 100 100 l 1
 136 0 l 1
 200 0 l 1
 200 300 l 1
 900 300 l 1
 900 600 l 1
EndSplineSet
Comment: "Valbli C"
Colour: ffff00
EndChar
StartChar: uniE024
Encoding: 57380 57380 13
Width: 1000
VWidth: 0
Flags: W
LayerCount: 2
Fore
SplineSet
900 600 m 1
 864 700 l 1
 100 700 l 1
 136 600 l 1
 800 602 l 17
 800 100 l 9
 100 100 l 25
 136 0 l 1
 900 0 l 1
 900 600 l 1
EndSplineSet
Comment: "Valbli S"
Colour: ffff00
EndChar
StartChar: uniE025
Encoding: 57381 57381 14
Width: 1000
VWidth: 0
Flags: W
HStem: -0 101<287.616 597.773>
VStem: 100 100<135.201 764> 723 57<186.621 308.402>
LayerCount: 2
Fore
SplineSet
200 764 m 1
 200 151 l 0
 217 124 321 101 432 101 c 0
 572 101 723 138 723 248 c 0
 723 249 723 250 723 251 c 0
 719 421 300 451 300 451 c 1
 355 551 l 1
 373 551 778 527 780 251 c 0
 780 250 780 249 780 249 c 0
 780 69 624 -0 455 -0 c 0
 367 -0 275 19 200 51 c 0
 100 87 l 1
 100 800 l 1
 200 764 l 1
EndSplineSet
Validated: 1
Comment: "Valbli F"
Colour: ffff00
EndChar
StartChar: uniE026
Encoding: 57382 57382 15
Width: 1000
VWidth: 0
Flags: W
HStem: 0 21G<100 155.556>
VStem: 100 100<36 399 520 764>
LayerCount: 2
Fore
SplineSet
800 115 m 1
 800 -5 l 1
 200 399 l 1
 200 36 l 1
 100 0 l 1
 100 764 l 1
 200 800 l 1
 200 520 l 1
 800 115 l 1
EndSplineSet
Comment: "Valbli X"
Colour: ffff00
EndChar
StartChar: uniE027
Encoding: 57383 57383 16
Width: 1000
VWidth: 0
Flags: W
HStem: -0 101<287.616 597.773> 600 100<200 752>
VStem: 100 100<135.201 600 700 764> 723 57<186.621 308.402>
LayerCount: 2
Fore
SplineSet
200 600 m 1
 200 151 l 0
 217 124 321 101 432 101 c 0
 572 101 723 138 723 248 c 0
 723 249 723 250 723 251 c 0
 719 421 300 451 300 451 c 1
 355 551 l 1
 373 551 778 527 780 251 c 0
 780 250 780 249 780 249 c 0
 780 69 624 -0 455 -0 c 0
 367 -0 275 19 200 51 c 0
 100 87 l 1
 100 800 l 1
 200 764 l 1
 200 700 l 1
 752 700 l 1
 788 600 l 1
 200 600 l 1
EndSplineSet
Validated: 1
Comment: "Valbli V"
Colour: ffff00
EndChar
StartChar: uniE028
Encoding: 57384 57384 17
Width: 1000
VWidth: 0
Flags: W
LayerCount: 2
Fore
SplineSet
900 600 m 1
 864 700 l 1
 100 700 l 1
 136 600 l 1
 800 602 l 1
 800 400 l 1
 100 400 l 1
 100 100 l 1
 136 0 l 1
 900 0 l 1
 864 100 l 5
 200 100 l 1
 200 300 l 1
 900 300 l 1
 900 600 l 1
EndSplineSet
Comment: "Valbli J"
Colour: ffff00
EndChar
StartChar: uniE029
Encoding: 57385 57385 18
Width: 1000
VWidth: 0
Flags: W
HStem: 0 100<136 864>
LayerCount: 2
Fore
SplineSet
900 0 m 1
 136 0 l 1
 100 100 l 1
 864 100 l 1
 900 0 l 1
900 600 m 1
 864 700 l 1
 100 700 l 1
 136 600 l 1
 800 602 l 1
 800 400 l 9
 100 400 l 25
 136 300 l 1
 900 300 l 1
 900 600 l 1
EndSplineSet
Comment: "Valbli Z"
Colour: ffff00
EndChar
StartChar: uniE02A
Encoding: 57386 57386 19
Width: 1000
VWidth: 0
Flags: W
HStem: 0 21G<200 255.556> 20 57<651.147 756.874> 700 100<136 200 300 814.64>
VStem: 200 100<36 700> 850 101<239.97 608.085>
LayerCount: 2
Fore
SplineSet
300 36 m 1x78
 200 0 l 1xb8
 200 700 l 1
 136 700 l 1
 100 800 l 1
 864 800 l 1
 900 700 l 0
 932 625 951 522 951 418 c 0
 951 219 881 20 702 20 c 0
 701 20 701 20 700 20 c 0
 424 22 400 527 400 545 c 1
 500 600 l 1
 500 600 530 81 700 77 c 0
 701 77 702 77 703 77 c 0
 813 77 850 259 850 427 c 0
 850 559 827 683 800 700 c 0
 300 700 l 1
 300 36 l 1x78
EndSplineSet
Validated: 1
Comment: "Valbli B"
Colour: ffff00
EndChar
StartChar: uniE02B
Encoding: 57387 57387 20
Width: 1000
VWidth: 0
Flags: W
HStem: 0 21G<200 255.556> 700 100<136 200 300 450 550 864>
VStem: 200 100<36 700> 450 100<38 700>
LayerCount: 2
Fore
SplineSet
300 36 m 1
 200 0 l 1
 200 700 l 5
 136 700 l 5
 100 800 l 5
 864 800 l 5
 900 700 l 5
 550 700 l 5
 550 38 l 1
 450 2 l 1
 450 700 l 5
 300 700 l 5
 300 36 l 1
EndSplineSet
Validated: 1
Comment: "Valbli D"
Colour: ffff00
EndChar
StartChar: uniE02C
Encoding: 57388 57388 21
Width: 1000
VWidth: 0
Flags: W
HStem: 0 21G<95 228.5> 600 100<136 200 300 499 620 864>
VStem: 200 100<304.455 600>
LayerCount: 2
Fore
SplineSet
200 600 m 1
 136 600 l 1
 100 700 l 1
 864 700 l 1
 900 600 l 1
 620 600 l 1
 215 0 l 1
 95 0 l 1
 200 155.940594059 l 1
 200 600 l 1
300 304.455445545 m 1
 499 600 l 1
 300 600 l 1
 300 304.455445545 l 1
EndSplineSet
Comment: "Valbli G"
Colour: ffff00
EndChar
